<svg width="173" height="47" viewBox="0 0 173 47" fill="none" xmlns="http://www.w3.org/2000/svg">
<path d="M9.376 38.896H24.096V46H0.416V1.328H9.376V38.896ZM50.527 46.448C46.3457 46.448 42.5057 45.4667 39.007 43.504C35.5083 41.5413 32.735 38.832 30.687 35.376C28.639 31.8773 27.615 27.9307 27.615 23.536C27.615 19.184 28.639 15.28 30.687 11.824C32.735 8.32533 35.5083 5.59466 39.007 3.632C42.5057 1.66933 46.3457 0.688 50.527 0.688C54.751 0.688 58.591 1.66933 62.047 3.632C65.5457 5.59466 68.2977 8.32533 70.303 11.824C72.351 15.28 73.375 19.184 73.375 23.536C73.375 27.9307 72.351 31.8773 70.303 35.376C68.2977 38.832 65.5457 41.5413 62.047 43.504C58.5483 45.4667 54.7083 46.448 50.527 46.448ZM50.527 38.448C53.215 38.448 55.583 37.8507 57.631 36.656C59.679 35.4187 61.279 33.6693 62.431 31.408C63.583 29.1467 64.159 26.5227 64.159 23.536C64.159 20.5493 63.583 17.9467 62.431 15.728C61.279 13.4667 59.679 11.7387 57.631 10.544C55.583 9.34933 53.215 8.752 50.527 8.752C47.839 8.752 45.4497 9.34933 43.359 10.544C41.311 11.7387 39.711 13.4667 38.559 15.728C37.407 17.9467 36.831 20.5493 36.831 23.536C36.831 26.5227 37.407 29.1467 38.559 31.408C39.711 33.6693 41.311 35.4187 43.359 36.656C45.4497 37.8507 47.839 38.448 50.527 38.448ZM111.145 14.768C110.121 12.8907 108.713 11.4613 106.921 10.48C105.129 9.49867 103.038 9.008 100.649 9.008C98.0037 9.008 95.657 9.60533 93.609 10.8C91.561 11.9947 89.961 13.7013 88.809 15.92C87.657 18.1387 87.081 20.6987 87.081 23.6C87.081 26.5867 87.657 29.1893 88.809 31.408C90.0037 33.6267 91.6463 35.3333 93.737 36.528C95.8277 37.7227 98.2597 38.32 101.033 38.32C104.446 38.32 107.241 37.424 109.417 35.632C111.593 33.7973 113.022 31.2587 113.705 28.016H98.345V21.168H122.537V28.976C121.94 32.0907 120.66 34.9707 118.697 37.616C116.734 40.2613 114.196 42.3947 111.081 44.016C108.009 45.5947 104.553 46.384 100.713 46.384C96.4037 46.384 92.4997 45.424 89.001 43.504C85.545 41.5413 82.8143 38.832 80.809 35.376C78.8463 31.92 77.865 27.9947 77.865 23.6C77.865 19.2053 78.8463 15.28 80.809 11.824C82.8143 8.32533 85.545 5.616 89.001 3.696C92.4997 1.73333 96.3823 0.751999 100.649 0.751999C105.684 0.751999 110.057 1.98933 113.769 4.464C117.481 6.896 120.041 10.3307 121.449 14.768H111.145ZM149.902 46.448C145.721 46.448 141.881 45.4667 138.382 43.504C134.883 41.5413 132.11 38.832 130.062 35.376C128.014 31.8773 126.99 27.9307 126.99 23.536C126.99 19.184 128.014 15.28 130.062 11.824C132.11 8.32533 134.883 5.59466 138.382 3.632C141.881 1.66933 145.721 0.688 149.902 0.688C154.126 0.688 157.966 1.66933 161.422 3.632C164.921 5.59466 167.673 8.32533 169.678 11.824C171.726 15.28 172.75 19.184 172.75 23.536C172.75 27.9307 171.726 31.8773 169.678 35.376C167.673 38.832 164.921 41.5413 161.422 43.504C157.923 45.4667 154.083 46.448 149.902 46.448ZM149.902 38.448C152.59 38.448 154.958 37.8507 157.006 36.656C159.054 35.4187 160.654 33.6693 161.806 31.408C162.958 29.1467 163.534 26.5227 163.534 23.536C163.534 20.5493 162.958 17.9467 161.806 15.728C160.654 13.4667 159.054 11.7387 157.006 10.544C154.958 9.34933 152.59 8.752 149.902 8.752C147.214 8.752 144.825 9.34933 142.734 10.544C140.686 11.7387 139.086 13.4667 137.934 15.728C136.782 17.9467 136.206 20.5493 136.206 23.536C136.206 26.5227 136.782 29.1467 137.934 31.408C139.086 33.6693 140.686 35.4187 142.734 36.656C144.825 37.8507 147.214 38.448 149.902 38.448Z" fill="black" fill-opacity="0.54"/>
</svg>
