<svg width="408" height="345" viewBox="0 0 408 345" fill="none" xmlns="http://www.w3.org/2000/svg">
<path d="M394.766 140.199C383.799 181.127 367.348 225.67 334.331 254.665C283.1 299.654 224.397 313.852 160.94 296.848C100.165 280.564 150.743 261.013 69.1763 231.49C55.6024 226.578 48.0547 207.478 44.5478 183.263C33.2285 105.102 92.2363 24.9875 163.957 58.053C188.621 69.4236 217.703 83.9327 256.448 94.3142C360.802 122.276 422.748 35.7677 394.766 140.199Z" fill="#014921" fill-opacity="0.75"/>
<g clip-path="url(#clip0_22_251)">
<path d="M222.251 61.5243C222.426 62.0296 222.71 62.4901 223.083 62.8736C223.455 63.2571 223.907 63.5542 224.407 63.7439C224.907 63.9337 225.442 64.0114 225.975 63.9718C226.508 63.9321 227.025 63.776 227.492 63.5144L259.196 73.6924L269.689 65.4533L228.794 58.287C228.303 57.5324 227.553 56.9842 226.685 56.7464C225.817 56.5086 224.892 56.5977 224.086 56.9967C223.279 57.3958 222.647 58.0771 222.309 58.9116C221.97 59.746 221.95 60.6757 222.251 61.5243Z" fill="#FFB6B6"/>
<path d="M280.973 75.1259C280.973 75.1259 280.685 74.4209 276.892 75.955C272.183 77.8591 247.113 76.5861 245.724 69.7452C245.28 70.2034 244.697 70.5009 244.066 70.5908C243.435 70.6808 242.792 70.558 242.238 70.2419L246.157 61.6332C248.197 60.9805 249.306 60.4977 249.438 61.3291L255.571 60.968L280.411 65.1529L281.098 73.7343L280.973 75.1259Z" fill="#F2F2F2"/>
<path d="M273.161 66.4951L285.497 65.4263L297.062 70.7172L303.556 160.626L278.071 148.83L267.137 151.858L273.161 66.4951Z" fill="#F2F2F2"/>
<path d="M303.511 223.408L298.832 223.408L296.605 205.345L303.511 205.345L303.511 223.408Z" fill="#FFB6B6"/>
<path d="M304.705 227.948L289.617 227.947V227.756C289.617 226.198 290.236 224.703 291.337 223.601C292.439 222.498 293.932 221.879 295.49 221.879L298.246 219.786L303.388 221.879L304.705 221.879L304.705 227.948Z" fill="#2F2E41"/>
<path d="M285.379 220.457L280.815 221.489L274.668 204.36L281.405 202.838L285.379 220.457Z" fill="#FFB6B6"/>
<path d="M287.542 224.622L272.825 227.948L272.783 227.761C272.44 226.241 272.714 224.646 273.546 223.329C274.378 222.011 275.698 221.077 277.218 220.734L277.218 220.734L279.446 218.085L284.922 218.993L286.207 218.703L287.542 224.622Z" fill="#2F2E41"/>
<path d="M309.438 112.981C311.632 119.603 311.4 126.791 308.911 134.505L307.846 177.94C309.606 179.878 309.875 197.215 307.165 202.872C303.546 210.426 306.874 211.436 304.316 216.448H296.897L293.468 193.743L293.223 175.339C292.238 173.004 293.047 164.787 293.047 164.787L292.762 147.747L279.384 177.596C285.445 182.788 284.899 199.559 285 206.998L286.987 215.776L277.855 216.593L273.825 204.689L269.295 197.354C266.986 184.356 266.301 174.815 268.27 170.917L281.699 120.912L309.438 112.981Z" fill="#2F2E41"/>
<path d="M310.389 110.77L309.166 108.322C307.668 99.039 306.189 90.3804 308.199 82.5919C308.325 75.7928 306.225 69.4053 300.395 65.9173L297.765 64.343L296.433 60.9633L284.174 61.263L284.138 65.6934L279.747 72.7019V72.7308L280.021 110.868L281.233 114.804L279.404 119.382L280.375 122.303L304.544 118.436L307.354 117.985C307.679 117.881 307.992 117.744 308.289 117.577C309.297 117.016 310.088 116.132 310.533 115.067C310.558 115.006 310.58 114.948 310.602 114.887C310.791 114.39 310.901 113.866 310.926 113.334C310.97 112.448 310.785 111.565 310.389 110.77Z" fill="#3F3D56"/>
<path opacity="0.2" d="M310.925 113.334C310.899 113.866 310.79 114.39 310.6 114.887L308.287 117.577C307.991 117.744 307.678 117.881 307.353 117.985L304.543 118.436L308.609 110.785L299.672 91.2036L310.925 113.334Z" fill="black"/>
<path d="M121.044 192.447C118.204 192.476 115.367 192.279 112.558 191.859C109.943 191.416 108.617 190.788 108.617 189.99L108.618 189.976L113.497 152.803L111.04 145.754C110.936 145.458 110.906 145.141 110.951 144.831C110.996 144.521 111.114 144.226 111.297 143.971C111.48 143.717 111.721 143.51 112.001 143.368C112.28 143.227 112.589 143.154 112.903 143.158L129.06 143.326C129.368 143.329 129.67 143.405 129.943 143.547C130.215 143.69 130.45 143.895 130.629 144.145C130.807 144.396 130.924 144.685 130.97 144.989C131.015 145.294 130.988 145.605 130.891 145.896L128.591 152.802L133.47 189.976C133.471 191.93 125.659 192.447 121.044 192.447Z" fill="#F2F2F2"/>
<path d="M119.728 187.214H111.836V187.658H119.728V187.214Z" fill="#CCCCCC"/>
<path d="M119.728 184.549H111.836V184.993H119.728V184.549Z" fill="#CCCCCC"/>
<path d="M119.728 181.884H111.836V182.328H119.728V181.884Z" fill="#CCCCCC"/>
<path d="M119.728 179.219H111.836V179.663H119.728V179.219Z" fill="#CCCCCC"/>
<path d="M119.728 176.554H111.836V176.998H119.728V176.554Z" fill="#CCCCCC"/>
<path d="M192.054 192.447C189.214 192.476 186.377 192.279 183.568 191.859C180.953 191.416 179.627 190.788 179.627 189.99L179.628 189.976L184.506 152.803L182.049 145.754C181.946 145.458 181.916 145.141 181.961 144.831C182.005 144.521 182.124 144.226 182.307 143.971C182.49 143.717 182.731 143.51 183.01 143.368C183.29 143.227 183.599 143.154 183.912 143.158L200.07 143.326C200.377 143.329 200.68 143.405 200.952 143.547C201.225 143.69 201.46 143.895 201.639 144.145C201.817 144.396 201.934 144.685 201.979 144.989C202.025 145.294 201.998 145.605 201.901 145.896L199.601 152.802L204.479 189.976C204.48 191.93 196.669 192.447 192.054 192.447Z" fill="#F2F2F2"/>
<path d="M190.738 187.214H182.846V187.658H190.738V187.214Z" fill="#CCCCCC"/>
<path d="M190.738 184.549H182.846V184.993H190.738V184.549Z" fill="#CCCCCC"/>
<path d="M190.738 181.884H182.846V182.328H190.738V181.884Z" fill="#CCCCCC"/>
<path d="M190.738 179.219H182.846V179.663H190.738V179.219Z" fill="#CCCCCC"/>
<path d="M190.738 176.554H182.846V176.998H190.738V176.554Z" fill="#CCCCCC"/>
<path d="M158.769 192.447C155.929 192.476 153.091 192.279 150.283 191.859C147.668 191.416 146.342 190.788 146.342 189.99L146.343 189.976L151.221 152.803L148.764 145.754C148.661 145.458 148.631 145.141 148.675 144.831C148.72 144.521 148.839 144.226 149.022 143.971C149.204 143.717 149.446 143.51 149.725 143.368C150.005 143.227 150.314 143.154 150.627 143.158L166.785 143.326C167.092 143.329 167.395 143.405 167.667 143.547C167.94 143.69 168.175 143.895 168.353 144.145C168.532 144.396 168.649 144.685 168.694 144.989C168.74 145.294 168.713 145.605 168.616 145.896L166.316 152.802L171.194 189.976C171.195 191.93 163.384 192.447 158.769 192.447Z" fill="#F2F2F2"/>
<path d="M157.451 187.214H149.559V187.658H157.451V187.214Z" fill="#CCCCCC"/>
<path d="M157.451 184.549H149.559V184.993H157.451V184.549Z" fill="#CCCCCC"/>
<path d="M157.451 181.884H149.559V182.328H157.451V181.884Z" fill="#CCCCCC"/>
<path d="M157.451 179.219H149.559V179.663H157.451V179.219Z" fill="#CCCCCC"/>
<path d="M157.451 176.554H149.559V176.998H157.451V176.554Z" fill="#CCCCCC"/>
<path d="M211.249 195.209H196.16V169.892H211.249C212.073 169.892 212.863 169.564 213.446 168.981C214.029 168.398 214.356 167.607 214.356 166.782C214.356 165.958 214.029 165.167 213.446 164.584C212.863 164.001 212.073 163.673 211.249 163.673H106.066C105.242 163.673 104.452 164.001 103.869 164.584C103.286 165.167 102.959 165.958 102.959 166.782C102.959 167.607 103.286 168.398 103.869 168.981C104.452 169.564 105.242 169.892 106.066 169.892H118.936V195.209H106.066C105.242 195.209 104.452 195.537 103.869 196.12C103.286 196.703 102.959 197.494 102.959 198.319C102.959 199.143 103.286 199.934 103.869 200.517C104.452 201.1 105.242 201.428 106.066 201.428H211.249C211.657 201.428 212.062 201.348 212.439 201.192C212.816 201.036 213.159 200.807 213.448 200.518C213.737 200.23 213.966 199.887 214.122 199.509C214.279 199.132 214.359 198.727 214.359 198.319C214.359 197.91 214.279 197.505 214.122 197.128C213.966 196.751 213.737 196.408 213.448 196.119C213.159 195.83 212.816 195.601 212.439 195.445C212.062 195.289 211.657 195.209 211.249 195.209ZM125.15 195.209V169.892H189.946V195.209H125.15Z" fill="#CCCCCC"/>
<path d="M208.805 227.99C201.087 227.99 193.889 227.49 188.537 226.584C181.934 225.466 178.725 223.842 178.725 221.619L178.728 221.549L190.317 133.236L184.515 116.591C184.236 115.808 184.153 114.969 184.272 114.146C184.391 113.323 184.708 112.542 185.197 111.87C185.674 111.187 186.313 110.634 187.056 110.258C187.798 109.882 188.623 109.695 189.455 109.715L227.874 110.116C228.689 110.124 229.49 110.325 230.212 110.702C230.934 111.079 231.556 111.622 232.029 112.285C232.502 112.949 232.811 113.715 232.932 114.521C233.053 115.327 232.981 116.15 232.724 116.924L227.293 133.23L238.883 221.55V221.584C238.885 223.981 235.251 225.684 227.774 226.788C220.43 227.873 212.062 227.99 208.805 227.99Z" fill="white"/>
<path d="M208.805 227.99C201.087 227.99 193.889 227.49 188.537 226.584C181.934 225.466 178.725 223.842 178.725 221.619L178.728 221.549L190.317 133.236L184.515 116.591C184.236 115.808 184.153 114.969 184.272 114.146C184.391 113.323 184.708 112.542 185.197 111.87C185.674 111.187 186.313 110.634 187.056 110.258C187.798 109.882 188.623 109.695 189.455 109.715L227.874 110.116C228.689 110.124 229.49 110.325 230.212 110.702C230.934 111.079 231.556 111.622 232.029 112.285C232.502 112.949 232.811 113.715 232.932 114.521C233.053 115.327 232.981 116.15 232.724 116.924L227.293 133.23L238.883 221.55V221.584C238.885 223.981 235.251 225.684 227.774 226.788C220.43 227.873 212.062 227.99 208.805 227.99ZM189.349 110.77C188.702 110.77 188.065 110.925 187.491 111.224C186.918 111.523 186.425 111.956 186.054 112.486C185.665 113.021 185.413 113.643 185.318 114.297C185.224 114.952 185.29 115.62 185.512 116.243L191.396 133.125L191.38 133.249L179.778 221.653C179.78 222.519 180.941 224.227 188.713 225.542C194.009 226.439 201.144 226.933 208.805 226.933C215.539 226.933 222.573 226.488 227.62 225.743C234.068 224.791 237.783 223.288 237.827 221.616L226.214 133.127L231.722 116.59C231.927 115.974 231.984 115.319 231.888 114.678C231.792 114.036 231.546 113.427 231.17 112.899C230.793 112.37 230.298 111.939 229.723 111.639C229.149 111.339 228.512 111.179 227.864 111.172L189.438 110.771C189.408 110.771 189.378 110.77 189.349 110.77Z" fill="#3F3D56"/>
<path opacity="0.5" d="M230.706 210.813H186.904L193.848 163.823L194.037 162.528L196.93 142.966C197.106 141.773 198.479 142.699 199.449 141.984C205.475 137.543 211.573 137.414 217.724 141.695C218.675 142.356 219.988 141.582 220.166 142.727L223.205 162.349L223.498 164.247L230.706 210.813Z" fill="#014921"/>
<path d="M225.3 217.394H192.264C191.398 217.394 190.542 217.207 189.754 216.846C188.967 216.485 188.266 215.959 187.7 215.302C187.135 214.646 186.717 213.876 186.475 213.043C186.234 212.211 186.174 211.336 186.301 210.479L195.953 145.156C196.003 144.822 196.14 144.507 196.351 144.243C196.561 143.979 196.838 143.776 197.152 143.653C197.466 143.53 197.808 143.493 198.141 143.545C198.475 143.597 198.788 143.735 199.051 143.948C204.933 148.664 211.345 148.558 218.106 143.634C218.369 143.442 218.676 143.321 218.999 143.284C219.321 143.246 219.648 143.293 219.947 143.419C220.253 143.544 220.52 143.747 220.724 144.007C220.928 144.267 221.062 144.575 221.111 144.902L231.256 210.438C231.39 211.298 231.335 212.176 231.097 213.013C230.859 213.85 230.442 214.626 229.877 215.287C229.311 215.947 228.609 216.478 227.819 216.841C227.029 217.205 226.17 217.393 225.3 217.394Z" fill="#014921"/>
<path d="M212.008 209.735H193.238V210.792H212.008V209.735Z" fill="white"/>
<path d="M212.008 203.397H193.238V204.454H212.008V203.397Z" fill="white"/>
<path d="M212.008 197.06H193.238V198.116H212.008V197.06Z" fill="white"/>
<path d="M212.008 190.722H193.238V191.778H212.008V190.722Z" fill="white"/>
<path d="M212.008 184.384H193.238V185.44H212.008V184.384Z" fill="white"/>
<path d="M224.384 167.758C222.928 169.204 221.177 170.319 219.25 171.024C217.324 171.73 215.267 172.01 213.223 171.845C210.89 171.634 208.763 170.763 206.716 169.664C204.599 168.529 202.552 167.171 200.209 166.538C198.156 165.983 195.723 165.909 193.961 167.282C193.816 167.394 193.64 167.457 193.458 167.462C193.276 167.466 193.097 167.413 192.947 167.309L193.148 165.935C195.111 164.562 197.496 164.351 199.834 164.821C204.541 165.772 208.114 169.669 212.938 170.229C215.018 170.464 217.125 170.177 219.067 169.395C221.01 168.614 222.728 167.361 224.067 165.751L224.073 165.745L224.384 167.758Z" fill="white"/>
<path d="M333.05 228.017C333.05 228.074 333.039 228.13 333.017 228.182C332.996 228.234 332.964 228.282 332.924 228.322C332.884 228.361 332.837 228.393 332.785 228.415C332.733 228.436 332.677 228.447 332.62 228.447H103.416C103.302 228.447 103.193 228.402 103.112 228.321C103.032 228.241 102.986 228.131 102.986 228.017C102.986 227.903 103.032 227.794 103.112 227.713C103.193 227.633 103.302 227.588 103.416 227.588H332.62C332.677 227.587 332.733 227.598 332.785 227.62C332.837 227.642 332.884 227.673 332.924 227.713C332.964 227.753 332.996 227.8 333.017 227.853C333.039 227.905 333.05 227.961 333.05 228.017Z" fill="#CCCCCC"/>
<path d="M285.429 65.4118L297.765 64.343L309.33 69.6339L315.824 159.543L290.339 147.747L279.404 150.774L285.429 65.4118Z" fill="#F2F2F2"/>
<path d="M224.544 65.301C225.739 65.301 226.708 64.331 226.708 63.1345C226.708 61.938 225.739 60.968 224.544 60.968C223.348 60.968 222.379 61.938 222.379 63.1345C222.379 64.331 223.348 65.301 224.544 65.301Z" fill="#014921"/>
<path d="M220.936 91.6597C222.132 91.6597 223.101 90.6898 223.101 89.4933C223.101 88.2967 222.132 87.3268 220.936 87.3268C219.741 87.3268 218.771 88.2967 218.771 89.4933C218.771 90.6898 219.741 91.6597 220.936 91.6597Z" fill="#014921"/>
<path d="M209.391 107.186C210.587 107.186 211.556 106.216 211.556 105.02C211.556 103.823 210.587 102.853 209.391 102.853C208.196 102.853 207.227 103.823 207.227 105.02C207.227 106.216 208.196 107.186 209.391 107.186Z" fill="#014921"/>
<path d="M263.432 123.972V100.715C263.432 100.244 263.619 99.7928 263.952 99.4599C264.284 99.1271 264.735 98.9399 265.206 98.9393H282.756C283.226 98.9399 283.677 99.1271 284.009 99.4599C284.342 99.7928 284.529 100.244 284.53 100.715V123.972C284.529 124.442 284.342 124.894 284.009 125.227C283.677 125.559 283.226 125.747 282.756 125.747H265.206C264.735 125.747 264.284 125.559 263.952 125.227C263.619 124.894 263.432 124.442 263.432 123.972Z" fill="#E6E6E6"/>
<path d="M264.777 116.947V101.996C264.778 101.555 264.953 101.132 265.264 100.82C265.576 100.509 265.998 100.333 266.439 100.333H281.521C281.962 100.333 282.384 100.509 282.696 100.82C283.007 101.132 283.182 101.555 283.183 101.996V122.691C283.182 123.132 283.007 123.555 282.696 123.866C282.384 124.178 281.962 124.353 281.521 124.354H272.178C270.216 124.352 268.335 123.571 266.947 122.182C265.56 120.793 264.78 118.911 264.777 116.947Z" fill="white"/>
<path d="M267.221 106.167C267.221 105.737 267.392 105.324 267.697 105.019C268.001 104.714 268.414 104.543 268.844 104.542H279.307C279.738 104.542 280.151 104.714 280.455 105.018C280.76 105.323 280.931 105.736 280.931 106.167C280.931 106.598 280.76 107.012 280.455 107.316C280.151 107.621 279.738 107.792 279.307 107.792H268.844C268.414 107.792 268.001 107.62 267.697 107.316C267.392 107.011 267.221 106.598 267.221 106.167Z" fill="#E6E6E6"/>
<path d="M267.221 111.222C267.221 110.792 267.392 110.379 267.697 110.074C268.001 109.769 268.414 109.598 268.844 109.598H279.307C279.738 109.598 280.151 109.769 280.455 110.073C280.76 110.378 280.931 110.791 280.931 111.222C280.931 111.653 280.76 112.067 280.455 112.371C280.151 112.676 279.738 112.847 279.307 112.847H268.844C268.414 112.847 268.001 112.675 267.697 112.371C267.392 112.066 267.221 111.653 267.221 111.222Z" fill="#E6E6E6"/>
<path d="M267.221 116.277C267.221 115.847 267.392 115.434 267.697 115.129C268.001 114.824 268.414 114.653 268.844 114.653H279.307C279.738 114.653 280.151 114.824 280.455 115.128C280.76 115.433 280.931 115.847 280.931 116.277C280.931 116.708 280.76 117.122 280.455 117.426C280.151 117.731 279.738 117.902 279.307 117.902H268.844C268.414 117.902 268.001 117.73 267.697 117.426C267.392 117.121 267.221 116.708 267.221 116.277Z" fill="#E6E6E6"/>
<path d="M277.728 127.984C278.222 127.78 278.665 127.47 279.026 127.075C279.388 126.681 279.658 126.212 279.819 125.702C279.979 125.192 280.026 124.653 279.956 124.123C279.886 123.592 279.7 123.084 279.413 122.633L292.138 111.064L296.602 93.7824L288.679 93.1227L286.257 106.684L274.123 121.632C273.399 122.165 272.895 122.947 272.708 123.828C272.52 124.708 272.662 125.627 273.106 126.41C273.551 127.193 274.267 127.786 275.119 128.076C275.97 128.366 276.899 128.333 277.728 127.984Z" fill="#FFB6B6"/>
<path d="M297.823 78.1751C297.823 78.1751 299.754 78.2037 298.885 82.2051C298.188 85.4084 295.547 103.435 293.438 107.468C293.921 107.885 294.251 108.451 294.377 109.076C294.503 109.701 294.417 110.351 294.134 110.922L285.321 107.501C284.553 105.5 285.841 104.878 286.663 104.699L286.502 98.4226L287.765 82.4253L296.428 78.1296L297.823 78.1751Z" fill="#F2F2F2"/>
<path d="M300.419 48.5603C300.008 51.5608 298.423 54.2753 296.014 56.1073C293.604 57.9393 290.566 58.739 287.567 58.3305C284.569 57.9221 281.855 56.339 280.022 53.9291C278.189 51.5192 277.387 48.4796 277.792 45.4783L277.814 45.3161C278.287 42.355 279.905 39.6987 282.317 37.9202C284.729 36.1417 287.744 35.3834 290.71 35.8091C293.675 36.2348 296.355 37.8102 298.171 40.1956C299.987 42.5809 300.793 45.585 300.415 48.5598L300.419 48.5603Z" fill="#FFB8B8"/>
<path d="M297.512 54.4459C298.099 53.2539 298.701 51.9742 298.536 50.6558C298.371 49.3375 297.08 48.0773 295.811 48.4691C295.052 48.7034 294.479 49.4531 293.686 49.4915C292.595 49.5442 291.97 48.2946 291.63 47.2556L290.247 43.0241C288.919 44.06 287.379 44.7897 285.736 45.1611C284.094 45.5326 282.39 45.5366 280.746 45.1729C279.462 44.879 278.164 44.3061 277.411 43.2246C276.658 42.1431 276.662 40.4655 277.695 39.6477C278.202 39.2467 278.876 39.0944 279.36 38.6665C279.661 38.401 279.868 38.0459 279.951 37.6536C280.034 37.2613 279.988 36.8527 279.821 36.4882C279.654 36.1238 279.374 35.8228 279.023 35.6299C278.672 35.4371 278.268 35.3625 277.871 35.4172L281.353 34.9817L280.315 33.1036C281.063 33.6934 282.104 33.7727 283.04 33.6039C283.977 33.435 284.86 33.049 285.776 32.7915C290.176 31.5555 295.29 33.7046 297.49 37.714C298.346 37.4276 299.27 37.4086 300.138 37.6594C301.006 37.9103 301.777 38.4191 302.35 39.1186C303.282 40.3028 303.536 41.883 303.572 43.3901C303.64 46.3617 302.992 49.306 301.684 51.9747C301.309 52.8223 300.77 53.5874 300.099 54.2258C299.76 54.5424 299.357 54.781 298.917 54.9251C298.477 55.0691 298.011 55.115 297.551 55.0596" fill="#2F2E41"/>
</g>
<defs>
<clipPath id="clip0_22_251">
<rect width="230.092" height="196.004" fill="white" transform="translate(102.959 32.4431)"/>
</clipPath>
</defs>
</svg>
